P3
4 4
255
255 255 255 253 253 253 255 248 242 252 254 253 
173 173 173 205 255 255 252 246 249 82 82 82 
216 104 114 251 251 202 252 242 86 166 52 59 
255 254 253 255 251 255 255 255 255 255 255 255 
